<svg width="320" height="400" viewBox="0 0 320 400" xmlns="http://www.w3.org/2000/svg">
  <defs>
    <linearGradient id="e1-dark" x1="0%" y1="0%" x2="100%" y2="100%">
      <stop offset="0%" style="stop-color:#2a2a2a"/>
      <stop offset="100%" style="stop-color:#404040"/>
    </linearGradient>
    <linearGradient id="e1-mid" x1="100%" y1="0%" x2="0%" y2="100%">
      <stop offset="0%" style="stop-color:#505050"/>
      <stop offset="100%" style="stop-color:#353535"/>
    </linearGradient>
    <linearGradient id="e1-light" x1="0%" y1="100%" x2="100%" y2="0%">
      <stop offset="0%" style="stop-color:#454545"/>
      <stop offset="100%" style="stop-color:#707070"/>
    </linearGradient>
    <linearGradient id="e1-peak" x1="50%" y1="0%" x2="50%" y2="100%">
      <stop offset="0%" style="stop-color:#888888"/>
      <stop offset="100%" style="stop-color:#4a4a4a"/>
    </linearGradient>
  </defs>
  <rect width="320" height="400" fill="transparent"/>

  <!-- 主体 - 锐利切割 -->
  <polygon points="40,280 40,60 82,40 82,258" fill="url(#e1-dark)"/>
  <polygon points="40,60 82,40 138,112 96,132" fill="url(#e1-light)"/>

  <polygon points="96,132 138,112 160,162" fill="url(#e1-peak)"/>
  <polygon points="160,162 182,112 224,132" fill="url(#e1-light)"/>

  <polygon points="182,112 238,40 280,60 224,132" fill="url(#e1-light)"/>
  <polygon points="238,40 280,60 280,280 238,258" fill="url(#e1-mid)"/>

  <polygon points="40,280 82,258 82,172 96,160 96,258 50,280" fill="url(#e1-dark)"/>
  <polygon points="224,160 224,258 270,280 280,280 238,258 238,172" fill="url(#e1-mid)"/>

  <!-- 核心空洞 -->
  <polygon points="160,162 160,215 128,188 96,160" fill="#1a1a1a"/>
  <polygon points="160,162 160,215 192,188 224,160" fill="#222222"/>

  <!-- 边缘高光 -->
  <line x1="40" y1="60" x2="82" y2="40" stroke="#999" stroke-width="1.5"/>
  <line x1="138" y1="112" x2="160" y2="162" stroke="#aaa" stroke-width="1.5"/>
  <line x1="182" y1="112" x2="160" y2="162" stroke="#999" stroke-width="1.5"/>

  <text x="160" y="355" font-family="Arial, sans-serif" font-size="20" font-weight="100" fill="#888" text-anchor="middle" letter-spacing="16">MOLI API</text>
</svg>
